<svg xmlns="http://www.w3.org/2000/svg" viewBox="0 0 26.2 40.24"><defs><style>.cls-1{isolation:isolate;}.cls-2{opacity:0.1;mix-blend-mode:lighten;}.cls-3{fill:#262d48;}.cls-4{fill:#fff;}</style></defs><g class="cls-1"><g id="Laag_1" data-name="Laag 1"><ellipse class="cls-2" cx="13.1" cy="34.67" rx="11.2" ry="5.56"/><rect class="cls-3" x="11.1" y="24.95" width="4.01" height="9.73"/><circle class="cls-3" cx="13.1" cy="13.1" r="13.1"/><path class="cls-4" d="M29.06,17.52a29.8,29.8,0,0,1,.39,3.11,2.54,2.54,0,0,1-1.67,2.53l.32,5.75a.59.59,0,0,1-.58.61H26a.58.58,0,0,1-.58-.61l.31-5.75A2.55,2.55,0,0,1,24,20.63a29.44,29.44,0,0,1,.39-3.11c.07-.49,1.09-.49,1.15,0V21c0,.08.37.08.39,0,0-.61.19-3.36.19-3.42.08-.51,1.08-.51,1.16,0,0,.06.16,2.81.19,3.42,0,.08.36.08.39,0V17.55C28,17,29,17,29.06,17.52Zm2.88,6.9-.37,4.47a.59.59,0,0,0,.58.63H33.5a.57.57,0,0,0,.58-.58V17.74a.57.57,0,0,0-.58-.58c-2,0-5.34,4.31-1.56,7.26Z" transform="translate(-15.96 -10.24)"/></g></g></svg>